<svg xmlns="http://www.w3.org/2000/svg" xmlns:xlink="http://www.w3.org/1999/xlink" width="2881.763" height="1924.407" viewBox="0 0 2881.763 1924.407">
  <defs>
    <linearGradient id="linear-gradient" x1="0.5" y1="1" x2="0.5" gradientUnits="objectBoundingBox">
      <stop offset="0" stop-color="gray" stop-opacity="0.251"/>
      <stop offset="0.54" stop-color="gray" stop-opacity="0.122"/>
      <stop offset="1" stop-color="gray" stop-opacity="0.102"/>
    </linearGradient>
  </defs>
  <g id="undraw_version_control_9bpv" transform="translate(-0.003 0.002)">
    <path id="Path_230" data-name="Path 230" d="M1737.667,412.564c-179.642-6.245-350.735-64.229-514.139-127.681s-325.2-133.76-500.538-167.373c-112.776-21.623-241.734-24.676-332.61,35.779-87.434,58.289-115.69,158.63-130.9,251.809-11.408,70.142-18.153,143.919,13.184,209.564,21.734,45.577,60.343,83.881,87.045,127.543,92.874,151.885,27.229,339.188-73.444,487.493C239.077,1299.255,184.285,1365.7,147.841,1439.7s-53.293,158.908-21.428,234.462c31.615,74.943,106.919,131.123,188.469,170.677,165.68,80.328,360.838,103.339,551.305,116.356,421.4,28.84,845.083,16.349,1267.6,3.858,156.382-4.635,313.43-9.326,467.258-33.5,85.435-13.434,173.646-34.752,235.655-86.046,78.718-65.312,98.231-175.923,45.493-257.805-88.489-137.368-333.082-171.509-395.007-318.926-34.058-81.133.916-171.537,50.378-246.786C2643.7,860.531,2821.6,718.916,2830.979,534.361c6.439-126.737-79.079-253.669-211.313-313.652-138.617-62.869-330.805-54.958-433.006,49.1C2081.3,376.841,1896.269,418.06,1737.667,412.564Z" transform="translate(-29.963 -103.35)" fill="#776335" opacity="0.068"/>
    <path id="Path_231" data-name="Path 231" d="M1275.961,1589.38c-2.776-10.048-5.551-20.207-11.1-28.95a101.4,101.4,0,0,0-18.181-19.9c-20.124-18.264-44.827-36.805-71.5-32.2a95.472,95.472,0,0,0-23.7,8.66c-3.886,1.8-7.8,3.608-11.8,5.135a58.763,58.763,0,0,1-35.584,3.108c-6.107-1.637-11.8-4.58-17.82-6.411a56.462,56.462,0,0,0-8.743-1.888,148.844,148.844,0,0,0,16.9-8.91c29.922-18.319,53.793-51.433,50.462-86.851-1.138-11.907-5.218-23.316-9.271-34.557l-10.659-29.478c-4.608-12.768-9.382-25.786-17.792-36.389-9.354-11.824-22.677-19.846-36.445-25.814-29.561-12.851-61.87-17.376-93.762-21.761l-2.221-.305V928.324a22.205,22.205,0,0,0-22.205-22.206H910.627q-2.776-16.987-5.551-33.919c-5.274-32.226-10.742-65.034-25.592-94.04-9.715-18.986-25.175-37.111-46.021-40.83a44.63,44.63,0,0,1-11.963-2.776c-6.107-3-9.437-9.66-14.128-14.572-12.1-12.685-31.782-12.879-47.992-19.43-14.323-5.69-26.036-16.4-39.081-24.648s-29.256-14.1-43.689-8.744a29.282,29.282,0,0,1-.305,3.137l-9.271-4.275c-9.992-4.635-20.179-9.382-28.2-16.987-10.3-9.715-15.794-22.594-20.068-36.278-.444-1.416-.86-2.776-1.3-4.3a128.874,128.874,0,0,0,34.53-65.922l2.248,7.3a48.444,48.444,0,0,0,1.777,4.83,19.037,19.037,0,0,0,5.551,7.855,9.846,9.846,0,0,0,2.331,1.36,9.705,9.705,0,0,0,2.387.611,8.884,8.884,0,0,0,3.442-.25,13.128,13.128,0,0,0,8.327-7.716,16.659,16.659,0,0,0,.972-3.386,17.5,17.5,0,0,0,.194-2.109v-2.887a5.415,5.415,0,0,0-.139-1.388v-.722a8.094,8.094,0,0,0-.277-1.637c-.111-.527,0-.305,0-.444-.139-.694-.305-1.416-.444-2.109v-.527c0-.167-.25-1.138-.389-1.721s-.194-.749-.278-1.138v-.167h0c-.278-1.11-.527-2.193-.777-3.3a95.424,95.424,0,0,1-1.527-29.311,313.838,313.838,0,0,1,7.938-42.607l.583-2.526c.222-.971.444-1.943.638-2.942.444-2,.888-4,1.3-6.023h0l1-5.107.749-4.552v-.583a131.593,131.593,0,0,0,.971-31.171h0c-1.277-14.517-5.773-28.257-15.627-39.193-6.967-7.744-16.154-13.462-22.622-21.595-6.051-7.605-9.465-16.987-15.738-24.454-17.32-20.679-61.787-36.611-89.072-39.387-31.254-3.164-81.744,4.83-106.947,23.288-9.326,6.8-15.71,16.654-22.205,25.98-11.935,17.348-25.481,34.668-44.605,44.411-7.217,3.664-15.488,6.44-20.29,12.824a34.67,34.67,0,0,0-5.413,14.378,285.091,285.091,0,0,0-5.718,54.9h0v6.939a50.6,50.6,0,0,0,4.33,20.068c.444.944.944,1.86,1.471,2.776l.333.583a110.428,110.428,0,0,1,8.882,15.128,20.035,20.035,0,0,1,1.36,4.608,33.973,33.973,0,0,1-.777,12.157h0a10.675,10.675,0,0,1-.361,1.832l-.25,1.194a2.34,2.34,0,0,1-.222,1.221c-.222,1.193-.416,2.387-.583,3.553h0a24.979,24.979,0,0,0,.611,9.6,12.63,12.63,0,0,0,6.162,8.327,18.045,18.045,0,0,0,5,1.554c1.749.305,3.525.5,5.246.888a25.893,25.893,0,0,1,6.356,2.36,25.574,25.574,0,0,1,5.357,3.442,30.446,30.446,0,0,1,2.3,2.332,38.838,38.838,0,0,1,3.941,5.385q.888,1.471,1.665,3a68.494,68.494,0,0,1,4.746,12.546c.722,2.581,1.332,5.19,1.86,7.8.25,1.166.472,2.332.666,3.47s.389,2.3.555,3.442h0a8.071,8.071,0,0,0,2.221-.444c4.08-1.471,6.356-6.217,7.633-10.825.222-.777.416-1.527.583-2.276.638-2.776,1.3-5.829,1.943-8.743a128.71,128.71,0,0,0,50.656,55.791c.777,2.3,1.527,4.58,2.193,6.911,3.636,12.574,5.385,25.73-.916,36.722-4.5,7.8-12.046,12.6-20.484,15.932a13.55,13.55,0,0,0-4.58-3.886c-7.3-3.664-16.071.777-22.205,6.245C404.926,701,395.877,715.4,381.277,718.7c-5.274,1.221-11.1.972-15.488,4.191a36.087,36.087,0,0,0-7.189,9.437,33.087,33.087,0,0,1-28.4,14.156c-5.08-.25-11.1-1.416-14.572,2.3-2.581,2.776-2.776,7.161-5.551,9.8-3.719,3.664-9.826,1.887-15.016,1.665-9.881-.416-19.069,5.968-24.7,14.156s-8.327,17.987-11.1,27.757v.167a19.827,19.827,0,0,0-2.026,1.693,29.283,29.283,0,0,0-6.134,9.937,474.276,474.276,0,0,0-39.137,161.489,16.655,16.655,0,0,1-1.776,7.828,38.5,38.5,0,0,1-4.08,4.441,15.572,15.572,0,0,0,2.581,22.205,17.481,17.481,0,0,1,2.97-3.942c-.305,1.277-.583,2.526-.777,3.664a98.512,98.512,0,0,0-.305,24.426q3.941,57.845,7.966,115.607c.749,10.908,1.5,21.789,2.5,32.67q2.914,31.587,8.327,62.925a27.085,27.085,0,0,0,.611,2.776c-22.622,7.189-42.745,20.179-51.211,41.857-2.942,7.494-4.275,15.655-7.883,22.844-3.969,7.883-10.492,14.184-14.822,21.9-7.467,13.268-7.8,29.533-5.08,44.411,5.246,29.006,20.929,54.93,41.635,76.026h-2.776a43.4,43.4,0,0,0-18.958,6.8c-43.8,25.591-68.837,80.494-59.7,130.623,1.8,9.8,4.941,19.735,11.491,27.2a43.047,43.047,0,0,0,20.207,12.38,70.2,70.2,0,0,0,14.905,2.776c34.141,2.776,67.2-13.046,101.423-14.378a272.042,272.042,0,0,1,33.947,1.582q24.731,2.054,49.546,2.609c26.9.638,42.024-6.523,59.177-26.619a72.433,72.433,0,0,0,10.464-16.487c14.6-.833,30.727-2.11,42.385-3.053l.167,1.61c.638,5.551,1.61,11.936,6.051,15.433a21.121,21.121,0,0,0,8.327,3.414c28.034,6.884,56.4,13.879,85.269,13.879a360.044,360.044,0,0,0,40.5-3.109l50.712-5.857a252.633,252.633,0,0,1,43.578,9.493c14.656,4.968,28.34,12.352,42.662,18.209,33.308,13.49,69.114,18.319,104.588,23.038,6.051.8,12.99,1.36,17.459-2.776,5.773-5.551,3.858-14.822,2.22-22.594-.666-3.192-1.166-6.384-1.554-9.6a486.416,486.416,0,0,1,70.058,24.315l3.969,1.748c1.166,6.051,6.745,10.881,12.1,17.4a44.417,44.417,0,0,0,6.134,7.605,20.458,20.458,0,0,0,8.8,3.164,410.282,410.282,0,0,0,113.609,5.135,116.2,116.2,0,0,1,23.427-.8,101.513,101.513,0,0,1,16.932,3.8l32.115,9.215c23.677,6.773,47.908,13.629,72.473,12.1a92.691,92.691,0,0,0,14.795-2.137c19.43-4.5,37.527-15.349,46.853-32.808C1289.146,1644.671,1283.067,1615.471,1275.961,1589.38Z" transform="translate(-30.436 218.951)" fill="url(#linear-gradient)"/>
    <path id="Path_232" data-name="Path 232" d="M211.055,796.673c-5.857-13.323-11.408-28.646-5.551-41.968a35.668,35.668,0,0,1,18.458-17.348,88.829,88.829,0,0,1,24.981-6.162,348.648,348.648,0,0,1,81.216-1.111c1.971,15.6-2.193,31.421-5.773,46.493-3.248,13.878-5.107,15.932-19.43,16.654C295.685,793.73,213.247,801.585,211.055,796.673Z" transform="translate(135.956 1006.246)" fill="#fbbebe"/>
    <ellipse id="Ellipse_20" data-name="Ellipse 20" cx="396.922" cy="111.027" rx="396.922" ry="111.027" transform="translate(197.262 1490.987)" fill="#464353"/>
    <ellipse id="Ellipse_21" data-name="Ellipse 21" cx="396.922" cy="111.027" rx="396.922" ry="111.027" transform="translate(197.262 1490.987)" opacity="0.1"/>
    <path id="Path_233" data-name="Path 233" d="M493.086,613.979a123.49,123.49,0,0,1-63.674,57.845,159.82,159.82,0,0,1-50.545,9.6c-18.847.86-38.082-.361-55.791-6.8-23.76-8.6-43.495-26.2-58.289-46.714s-24.981-43.939-33.835-67.56c-4.663-12.3-9.1-25.4-6.912-38.388,14.295-3.248,29.95-8.022,37.333-20.707,6.3-10.881,4.552-23.926.916-36.361-1.027-3.525-2.221-7.022-3.414-10.381-2.776-8.049-12.352-23.343-5.551-30.227,4.247-4.358,22.039-6.579,28.173-9.409,18.9-8.716,36.334-21.317,57.1-25.453,17.959-3.581,36.5-.222,54.431,3.5a17.9,17.9,0,0,1,6.717,2.415,16.155,16.155,0,0,1,5,7.494c5.107,12.435,8.105,26.175,12.213,39.137,4.275,13.573,9.77,26.313,20.068,35.945,8.022,7.522,18.236,12.241,28.229,16.82l24.592,11.269a32.335,32.335,0,0,1,11.63,7.522,29.452,29.452,0,0,1,5.551,15.1,141.062,141.062,0,0,1-13.934,85.352Z" transform="translate(172.267 401.923)" fill="#fbbebe"/>
    <path id="Path_234" data-name="Path 234" d="M399.248,441.97A127.681,127.681,0,0,1,244.726,464.9c-1.027-3.525-2.221-7.023-3.414-10.381-2.776-8.049-12.352-23.343-5.551-30.227,4.247-4.358,22.039-6.579,28.173-9.409,18.9-8.716,36.334-21.317,57.1-25.453,17.959-3.581,36.5-.222,54.431,3.5a17.9,17.9,0,0,1,6.717,2.415,16.158,16.158,0,0,1,5,7.494C392.142,415.268,395.14,429.008,399.248,441.97Z" transform="translate(189.857 401.923)" opacity="0.1"/>
    <circle id="Ellipse_22" data-name="Ellipse 22" cx="127.681" cy="127.681" r="127.681" transform="translate(369.355 622.2)" fill="#fbbebe"/>
    <path id="Path_235" data-name="Path 235" d="M820.129,694.6l-10.492-63.563c-5.3-31.892-10.77-64.4-25.592-93.124-9.743-18.819-25.2-36.75-46.049-40.469a44.559,44.559,0,0,1-11.991-2.776c-6.107-2.942-9.437-9.548-14.128-14.434-12.1-12.546-31.809-12.74-48.019-19.124-14.323-5.551-26.036-16.238-39.082-24.4s-29.283-13.878-43.717-8.66c-2.331,24.843-4.8,50.24-15.349,72.862a109.029,109.029,0,0,1-164.487,40.969c-24.731-18.625-40.58-47.353-47.964-77.414-1.8-7.328-3.858-15.738-10.6-19.1-7.3-3.664-16.071.777-22.205,6.162-11.1,9.965-20.179,24.232-34.779,27.59-5.274,1.221-11.1.972-15.488,4.164a35.245,35.245,0,0,0-7.217,9.354,33.309,33.309,0,0,1-28.4,14.045c-5.079-.25-11.1-1.416-14.572,2.276-2.581,2.776-2.776,7.106-5.551,9.687-3.747,3.636-9.826,1.86-15.044,1.665-9.881-.416-19.069,5.912-24.731,13.879s-8.327,17.82-11.1,27.368c30.338,67.56,58.095,135.2,88.433,202.763a17.294,17.294,0,0,1,2.193,8.327,20.291,20.291,0,0,1-3.775,8.327c-14.878,23.9-14.406,53.959-12.768,82.049s3.636,57.762-8.91,82.937c-3.414,6.912-7.855,13.24-11.1,20.151-7.605,15.655-10.353,65.728-5.912,82.549H839.254c-11.963-32.891-7.411-98.9-4.913-133.815,1.749-24.426-2.776-48.824-4.719-73.25C825.375,791.721,828.373,744.4,820.129,694.6Z" transform="translate(65.918 469.663)" fill="#d68c00"/>
    <path id="Path_236" data-name="Path 236" d="M146.842,573.164a98.256,98.256,0,0,0-.333,24.232l7.966,114.552c.749,10.8,1.5,21.567,2.5,32.337,1.915,20.9,4.774,41.635,8.327,62.342a11.1,11.1,0,0,0,11.38,10.8c35.112,7.439,71.39,7.134,107.225,5.107,54.681-3.053,109.278-10.02,164.043-8.827,14.1.305,30.532,0,39.082-11.1s3.581-29.062-7.578-38.027-26.313-11.1-40.636-11.1c-18.958-.194-37.916,2.5-56.818,1.388-17.348-1.027-34.307-5.219-51.128-9.41l-47.187-11.741c1.8-14.295,7.245-27.756,12.407-41.329,9.271-24.065,17.931-48.936,18.1-74.722s-9.548-52.9-30.671-67.671c-17.376-12.13-39.748-14.378-60.926-13.879-15.4.444-42.024-3.248-56.1,2.776C155.364,543.77,148.924,562.256,146.842,573.164Z" transform="translate(34.571 663.821)" fill="#fbbebe"/>
    <path id="Path_237" data-name="Path 237" d="M731.794,644.82c9.243-3.525,19.43-2.248,29.339-.916,31.892,4.357,64.257,8.826,93.818,21.567,13.879,5.94,27.09,13.878,36.472,25.564,8.327,10.52,13.185,23.4,17.792,36.084l10.659,29.2c4.052,11.1,8.16,22.427,9.3,34.224,3.331,34.946-20.568,67.893-50.628,86.046s-65.451,24.62-99.925,31.393S709.533,922.25,675.2,930.187a416.269,416.269,0,0,1-48.658,9.576c-36.75,4.164-75.165-1.971-110.083,10.187-13.878,4.858-27.507,12.074-41.913,15.432a260.725,260.725,0,0,1-28.978,4.413l-66.089,7.55a360.5,360.5,0,0,1-40.525,3.109c-28.867,0-57.262-6.829-85.3-13.656a21.572,21.572,0,0,1-8.327-3.359c-4.441-3.5-5.413-9.687-6.051-15.294q-4.247-37.222-7.439-74.527c-.666-8.077-1.166-16.821,3.247-23.621,5.551-8.327,16.377-10.936,26.258-12.546a685.212,685.212,0,0,1,126.793-8.8c16.127-16.127,42.718-16.21,63.841-24.981a189.87,189.87,0,0,0,22.51-12.241,294.216,294.216,0,0,1,123.6-39.053,115.072,115.072,0,0,0,25.286-3.608c16.349-5.08,31.254-18.9,48.047-15.517,2.082-5.745,3.525-13.434,8.327-17.375,2.387-2.027,5.329-3.387,7.522-5.552,4.636-4.691,5.052-12.074,4.358-18.624s-2.248-13.268-.555-19.652a27.157,27.157,0,0,1,3.081-6.856C702.483,650.815,715.057,643.432,731.794,644.82Z" transform="translate(186.368 854.078)" fill="#464353"/>
    <path id="Path_238" data-name="Path 238" d="M731.794,644.82c9.243-3.525,19.43-2.248,29.339-.916,31.892,4.357,64.257,8.826,93.818,21.567,13.879,5.94,27.09,13.878,36.472,25.564,8.327,10.52,13.185,23.4,17.792,36.084l10.659,29.2c4.052,11.1,8.16,22.427,9.3,34.224,3.331,34.946-20.568,67.893-50.628,86.046s-65.451,24.62-99.925,31.393S709.533,922.25,675.2,930.187a416.269,416.269,0,0,1-48.658,9.576c-36.75,4.164-75.165-1.971-110.083,10.187-13.878,4.858-27.507,12.074-41.913,15.432a260.725,260.725,0,0,1-28.978,4.413l-66.089,7.55a360.5,360.5,0,0,1-40.525,3.109c-28.867,0-57.262-6.829-85.3-13.656a21.572,21.572,0,0,1-8.327-3.359c-4.441-3.5-5.413-9.687-6.051-15.294q-4.247-37.222-7.439-74.527c-.666-8.077-1.166-16.821,3.247-23.621,5.551-8.327,16.377-10.936,26.258-12.546a685.212,685.212,0,0,1,126.793-8.8c16.127-16.127,42.718-16.21,63.841-24.981a189.87,189.87,0,0,0,22.51-12.241,294.216,294.216,0,0,1,123.6-39.053,115.072,115.072,0,0,0,25.286-3.608c16.349-5.08,31.254-18.9,48.047-15.517,2.082-5.745,3.525-13.434,8.327-17.375,2.387-2.027,5.329-3.387,7.522-5.552,4.636-4.691,5.052-12.074,4.358-18.624s-2.248-13.268-.555-19.652a27.157,27.157,0,0,1,3.081-6.856C702.483,650.815,715.057,643.432,731.794,644.82Z" transform="translate(186.368 854.078)" opacity="0.05"/>
    <path id="Path_239" data-name="Path 239" d="M402.379,849.683c-17.181,19.9-32.309,27.007-59.205,26.369q-24.815-.583-49.574-2.582a278.137,278.137,0,0,0-33.974-1.582c-34.252,1.332-67.31,17.015-101.479,14.267a71.972,71.972,0,0,1-14.905-2.776,43.384,43.384,0,0,1-20.235-12.269c-6.551-7.411-9.687-17.237-11.491-26.952-9.132-49.8,15.9-104.032,59.733-129.374a43.8,43.8,0,0,1,18.986-6.745,44.989,44.989,0,0,1,19.208,4.219l.416.167a145.255,145.255,0,0,1,47.575,31.753,26.807,26.807,0,0,0,7.272,5.857,25,25,0,0,0,8.577,1.61l36.472,2.3a86.415,86.415,0,0,1,18.32,2.526,145.61,145.61,0,0,1,19.263,8.327c19.624,8.771,41.385,11.1,62.592,14.489a9.353,9.353,0,0,1,5.551,2.221,8.684,8.684,0,0,1,1.721,3.608A70.807,70.807,0,0,1,402.379,849.683Z" transform="translate(-29.832 970.389)" fill="#3f3d56"/>
    <path id="Path_240" data-name="Path 240" d="M209.858,712.436a219.006,219.006,0,0,0-36.5,45.632,228.385,228.385,0,0,0-29.811,90.321,167.649,167.649,0,0,0-.305,35,43.377,43.377,0,0,1-20.235-12.269c-6.551-7.411-9.687-17.237-11.491-26.952-9.132-49.8,15.9-104.033,59.733-129.375a43.8,43.8,0,0,1,18.986-6.745,45,45,0,0,1,19.208,4.219Z" transform="translate(-29.832 970.406)" opacity="0.1"/>
    <path id="Path_241" data-name="Path 241" d="M454.753,737.849c20.4-.555,43.3-1.582,58.289,12.157,14.295,12.99,16.182,34.419,17.126,53.709l1.083,22.4c.333,6.829.611,13.878-2.137,20.207-4.885,11.1-18.292,16.46-30.532,15.821s-23.482-5.995-34.668-10.825a487.687,487.687,0,0,0-94.373-29.728q1.582-23.232,5.273-46.243c1.693-10.63,1.971-28.423,9.076-37.249,7.522-9.327,17.32-4.275,27.535-2.554A221.1,221.1,0,0,0,454.753,737.849Z" transform="translate(431.655 1014.052)" fill="#fbbebe"/>
    <path id="Path_242" data-name="Path 242" d="M351.371,692.648c0,2.776-4.358,0-4.746-2.97-3.053-22.455-20.873-40.969-41.635-49.962s-44.411-9.465-66.894-7.328c-34,3.22-72.168,16.238-84.6,48.02-2.942,7.439-4.275,15.488-7.883,22.621-4,7.828-10.52,14.073-14.85,21.678-7.467,13.157-7.772,29.283-5.08,44.161,7.245,39.692,34.391,73.639,67.282,97.149S264.3,903.572,302.63,916.229a1901.867,1901.867,0,0,0,310.876,74.249c17.1,2.582,34.363,4.968,50.739,10.464,14.656,4.913,28.367,12.269,42.69,18.042,33.308,13.379,69.142,18.153,104.643,22.844,6.051.777,12.99,1.332,17.459-2.776,5.773-5.357,3.858-14.684,2.221-22.372a120.326,120.326,0,0,1,14.183-85.38c5.94-9.992,13.657-20.234,12.546-31.809-1.332-13.49-14.767-23.038-28.146-25.2s-26.979,1.027-40.414,2.776c-4.635.61-9.687,1-13.74-1.36a27.488,27.488,0,0,1-5.385-4.774,60.87,60.87,0,0,0-70.891-9.909c-4.968,2.776-12.491-3.414-17.653-5.746L623.387,828.85c-67.06-30.338-134.454-60.815-205.4-80.023a43.142,43.142,0,0,1-15.821-6.578c-3.525-2.776-6.051-6.55-9.3-9.632-7.078-6.689-16.932-9.354-25.425-14.1S349.428,702.169,351.371,692.648Z" transform="translate(-4.111 834.173)" fill="#464353"/>
    <path id="Path_243" data-name="Path 243" d="M752.677,885.937c-9.326,17.292-27.424,28.062-46.853,32.5A93.031,93.031,0,0,1,691,920.55c-24.565,1.526-48.824-5.274-72.5-11.991l-32.143-9.048a101.471,101.471,0,0,0-16.932-3.775A116.17,116.17,0,0,0,546,896.54a415.212,415.212,0,0,1-113.8-5.107,20.061,20.061,0,0,1-8.8-3.136,43.726,43.726,0,0,1-6.134-7.523c-8.743-10.52-18.153-16.653-7.8-30.533,5.968-8.049,17.043-12.074,21.678-21.317s1.665-22.372-1.083-31.92c-3.747-13.185-16.071-18.875-20.484-30.976-3.3-9.132,2.248-19.736,10.6-24.7s18.681-5.357,28.312-4.08,19.069,4,28.756,4.747c28.478,2.276,57.6-12.408,84.936-4.136,6.023,1.832,11.713,4.747,17.82,6.356a59.263,59.263,0,0,0,35.612-3.081c4-1.5,7.911-3.3,11.8-5.08a95.017,95.017,0,0,1,23.732-8.577c26.674-4.58,51.405,13.879,71.529,31.893a101.126,101.126,0,0,1,18.181,19.707c5.551,8.66,8.494,18.736,11.1,28.673C759.311,833.421,765.39,862.343,752.677,885.937Z" transform="translate(494.486 1003.639)" fill="#3f3d56"/>
    <path id="Path_244" data-name="Path 244" d="M610.275,886.043c-9.326,17.292-27.424,28.062-46.853,32.5a90.737,90.737,0,0,0,9.854-47.631c-1.665-26.4-13.268-51.266-28.062-73.194a259.227,259.227,0,0,0-30.921-37.666c-8.827-8.882-19.68-15.933-29.172-24.065a94.986,94.986,0,0,1,23.732-8.577c26.674-4.58,51.406,13.879,71.529,31.893a101.155,101.155,0,0,1,18.181,19.707c5.551,8.66,8.493,18.735,11.1,28.673C616.909,833.527,622.988,862.45,610.275,886.043Z" transform="translate(636.888 1003.532)" opacity="0.1"/>
    <path id="Path_245" data-name="Path 245" d="M198.054,486.937a28.73,28.73,0,0,0-6.162,9.853,465.929,465.929,0,0,0-39.137,159.935,15.987,15.987,0,0,1-1.8,7.744,33.869,33.869,0,0,1-4.08,4.414,15.322,15.322,0,0,0,2.609,22.205c4.58-8.632,15.544-11.436,25.286-12.185C221.425,675.211,267,696.917,313.8,695.279c-3.3-11.408-8.049-22.372-10.742-33.919-11.908-51.267,17.792-107.086-.416-156.465-3.636-9.881-9.715-19.6-19.291-23.927A51.369,51.369,0,0,0,271,477.694c-11.824-2.137-35.362-11.269-46.8-7.605-4.219,1.36-5.884,5.329-9.382,7.716C209.517,481.219,202.467,482.468,198.054,486.937Z" transform="translate(29.852 546.341)" fill="#d68c00"/>
    <rect id="Rectangle_56" data-name="Rectangle 56" width="618.976" height="394.146" rx="7.97" transform="translate(326.332 1134.313)" fill="#3f3d56"/>
    <circle id="Ellipse_23" data-name="Ellipse 23" cx="16.654" cy="16.654" r="16.654" transform="translate(617.778 1314.732)" fill="#fff"/>
    <path id="Path_246" data-name="Path 246" d="M291.057,313.935c-9.326,6.745-15.71,16.432-22.205,25.73-11.963,17.181-25.508,34.335-44.633,43.911-7.245,3.636-15.516,6.384-20.318,12.713a34.251,34.251,0,0,0-5.413,14.239,282.141,282.141,0,0,0-5.718,54.4c0,9.1.389,18.486,4.413,26.758,3.8,7.772,10.659,14.351,12.074,22.816,1.083,6.606-1.36,13.185-2.221,19.818s.638,14.489,6.773,17.653a41.053,41.053,0,0,0,10.27,2.415c18.458,4.108,24.648,25.758,27.451,43.661,6.273-.361,9.1-7.55,10.409-13.406l19.236-85.519c2.082-9.271,5.551-20.012,14.794-23.26,6.19-2.137,12.963-.139,19.43.416,25.4,2.082,46.881-17.543,71.724-22.955a91.578,91.578,0,0,1,24.176-1.61c19.6.971,42.385,9.021,46.548,27.312.694,2.97,1.11,6.523,3.886,7.994s5.69.222,8.6,0c12.435-1.249,19.763,12.74,23.343,24.176l13.046,41.635c1.943,6.3,5.218,13.712,12.046,14.517,6.3.777,11.658-5.191,12.6-11.1s-1.11-12.046-2.47-17.987c-6.134-27.34,3.248-55.319,8.965-82.715s6.745-58.872-12.435-79.967c-6.967-7.633-16.127-13.323-22.622-21.373-6.051-7.55-9.465-16.821-15.738-24.232-17.348-20.457-61.842-36.25-89.127-38.86C366.777,287.733,316.26,295.643,291.057,313.935Z" transform="translate(117.768 228.714)" fill="#3f3d56"/>
    <g id="Group_1500" data-name="Group 1500" transform="translate(310.566 642.99)" opacity="0.1">
      <path id="Path_247" data-name="Path 247" d="M509.823,457.253c-6.828-.833-10.1-8.327-12.047-14.517q-6.523-20.845-13.046-41.635c-3.581-11.464-10.909-25.453-23.344-24.176-2.914.3-6.051,1.443-8.6,0s-3.192-5.024-3.886-7.994c-4.164-18.32-26.952-26.341-46.548-27.313a92.8,92.8,0,0,0-24.176,1.582c-24.842,5.551-46.326,24.981-71.724,22.955-6.551-.528-13.323-2.526-19.43-.389-9.354,3.22-12.713,13.879-14.794,23.26l-19.236,85.491c-1.3,5.885-4.136,13.073-10.409,13.407-2.776-17.875-8.993-39.526-27.451-43.634a43.637,43.637,0,0,1-10.27-2.415,12.047,12.047,0,0,1-5.357-5.968c-.5,2.582-1.082,5.163-1.415,7.744-.833,6.606.638,14.489,6.773,17.653a41.054,41.054,0,0,0,10.27,2.415c18.458,4.108,24.648,25.758,27.451,43.661,6.273-.361,9.1-7.55,10.409-13.406l19.235-85.519c2.082-9.271,5.551-20.013,14.794-23.26,6.19-2.137,12.963-.139,19.43.416,25.4,2.082,46.881-17.542,71.724-22.955a91.6,91.6,0,0,1,24.176-1.61c19.6.972,42.385,9.021,46.548,27.313.694,2.97,1.11,6.523,3.886,7.994s5.69.222,8.6,0c12.435-1.249,19.763,12.74,23.344,24.176q6.5,20.845,13.046,41.635c1.943,6.3,5.218,13.712,12.047,14.517,6.3.777,11.658-5.19,12.6-11.1a37.691,37.691,0,0,0-1.665-14.739A11.463,11.463,0,0,1,509.823,457.253Z" transform="translate(-183.736 -323.603)"/>
      <path id="Path_248" data-name="Path 248" d="M209.268,389.36c-1.416-8.466-8.327-15.044-12.074-22.816a45.657,45.657,0,0,1-4.108-16.654c0,3.108-.278,6.217-.305,9.354,0,9.1.389,18.486,4.413,26.757,3.081,6.3,8.16,11.852,10.714,18.264A41.808,41.808,0,0,0,209.268,389.36Z" transform="translate(-192.78 -308.56)"/>
      <path id="Path_249" data-name="Path 249" d="M324.145,356.734c-5.052,24.2-12.935,48.852-10.492,73.111,1.582-17.9,6.8-35.917,10.492-53.682A141.56,141.56,0,0,0,327.365,335a169.718,169.718,0,0,1-3.22,21.733Z" transform="translate(21.038 -335)"/>
    </g>
    <g id="Group_1501" data-name="Group 1501" transform="translate(830.978 340.468)" opacity="0.8">
      <line id="Line_1" data-name="Line 1" x2="1734.966" transform="translate(85.102 465.842)" fill="none" stroke="#3f3d56" stroke-miterlimit="10" stroke-width="3"/>
      <path id="Path_250" data-name="Path 250" d="M466.46,490.387s82.965,11.519,40-77.5,116.579-72.168,116.579-72.168" transform="translate(-227.224 -24.573)" fill="none" stroke="#3f3d56" stroke-miterlimit="10" stroke-width="3"/>
      <path id="Path_251" data-name="Path 251" d="M665.53,394.14s82.965-11.491,40,77.525,116.578,72.168,116.578,72.168" transform="translate(126.26 71.675)" fill="none" stroke="#3f3d56" stroke-miterlimit="10" stroke-width="3"/>
      <path id="Path_252" data-name="Path 252" d="M1052.326,394.14s-82.993-11.491-40,77.525S895.75,543.832,895.75,543.832" transform="translate(535.057 71.675)" fill="none" stroke="#3f3d56" stroke-miterlimit="10" stroke-width="3"/>
      <line id="Line_2" data-name="Line 2" x1="457.793" transform="translate(973.014 615.479)" fill="none" stroke="#3f3d56" stroke-miterlimit="10" stroke-width="3"/>
      <circle id="Ellipse_24" data-name="Ellipse 24" cx="50.656" cy="50.656" r="50.656" transform="translate(34.446 415.186)" fill="#ffb221"/>
      <circle id="Ellipse_25" data-name="Ellipse 25" cx="50.656" cy="50.656" r="50.656" transform="translate(346.016 264.772)" fill="#22ffcb"/>
      <circle id="Ellipse_26" data-name="Ellipse 26" cx="50.656" cy="50.656" r="50.656" transform="translate(346.016 415.186)" fill="#ffb221"/>
      <circle id="Ellipse_27" data-name="Ellipse 27" cx="50.656" cy="50.656" r="50.656" transform="translate(547.086 415.186)" fill="#ffb221"/>
      <circle id="Ellipse_28" data-name="Ellipse 28" cx="50.656" cy="50.656" r="50.656" transform="translate(898.543 564.074)" fill="#de0eb6"/>
      <circle id="Ellipse_29" data-name="Ellipse 29" cx="50.656" cy="50.656" r="50.656" transform="translate(1164.12 564.074)" fill="#de0eb6"/>
      <circle id="Ellipse_30" data-name="Ellipse 30" cx="50.656" cy="50.656" r="50.656" transform="translate(1150.269 415.186)" fill="#ffb221"/>
      <circle id="Ellipse_31" data-name="Ellipse 31" cx="50.656" cy="50.656" r="50.656" transform="translate(1756.589 415.186)" fill="#ffb221"/>
      <circle id="Ellipse_32" data-name="Ellipse 32" cx="50.656" cy="50.656" r="50.656" transform="translate(1508.554 415.186)" fill="#ffb221"/>
      <rect id="Rectangle_57" data-name="Rectangle 57" width="169.955" height="117.134" fill="#ffb221"/>
      <rect id="Rectangle_58" data-name="Rectangle 58" width="169.955" height="117.134" transform="translate(312.319)" fill="#22ffcb"/>
      <rect id="Rectangle_59" data-name="Rectangle 59" width="169.955" height="117.134" transform="translate(863.514)" fill="#de0eb6"/>
    </g>
    <g id="Group_1502" data-name="Group 1502" transform="translate(0.003 806.813)" opacity="0.1">
      <path id="Path_253" data-name="Path 253" d="M320.565,418.139s-207.537-87.267-234.739,70.2c0,0-14.184,24.537,5.551,44.8,0,0,4.247-10.881,24.287.361a103.171,103.171,0,0,0,22.65,9.215,50.962,50.962,0,0,0,32.253-1.721h0s68.254-3.691,125.655-92.985c0,0,24.62-15.211,25.842-20.929l-41.136,2.776s3.164,30.116-13.878,48.186c0,0,15.1-46.742,7.855-48.047-1.471-.277-21.734,2.387-21.734,2.387s5.246,52.377-22.205,79.468c0,0,25.481-53.265,14.406-78.524l-30.366,5.857s8.327,55.1-21.706,87.128c0,0,24.7-56.624,15.155-85.38l-29.061,9.77s6.995,53.876-18.125,80.495c0,0,21.928-68.309,11.6-77.719,0,0-26.147,10.6-31.726,16.654,0,0,4.136,38.86-11.824,52.877,0,0,9.8-47.186,4.941-49.129,0,0-30.366,22.871-39.637,42.607,0,0,11.547-30.144,35.834-47.187,0,0-20.4-3.442-36.084,5.079,0,0,10.492-20.012,43.439-10.52,0,0,24.4-16.9,29.283-16.654,0,0-31.171-13.879-53.682-12.157,0,0,24.148-13.879,61.287,9.3l29.006-10.464s-40.247-20.623-60.4-20.54c0,0,26.813-10.381,67.921,18.486l29.7-6.051s-33.308-20.4-55.763-25.148c0,0,26.924-4.275,64.34,23.732l20.29-1.693s-24.565-14.489-32-18.014-7.106-5.8-7.106-5.8a96.845,96.845,0,0,1,47.575,22.705S320.4,420.721,320.565,418.139Z" transform="translate(-80.893 -394.021)" fill="#d68c00"/>
    </g>
    <g id="Group_1503" data-name="Group 1503" transform="translate(30.415 561.957)" opacity="0.1">
      <path id="Path_254" data-name="Path 254" d="M293.448,418.342s-73.5-170.066-179.392-92.069c0,0-22.372,6.495-22.205,29.7,0,0,8.716-4.052,14.239,14.073a83.546,83.546,0,0,0,8.327,18.347,41.633,41.633,0,0,0,20.124,17.348h0S177.2,442.435,262.222,422.09c0,0,23.316,4.968,27.285,2.3l-25.98-21.844s-15.294,19.707-35.779,20.651c0,0,35.612-19.152,32.059-24.065-.722-1-14.295-10.936-14.295-10.936s-26.7,34.085-58.289,34.613c0,0,45.493-17.154,53.293-38.443L219.143,370.49s-26.952,37.5-63.036,39.443c0,0,46.937-19.569,57.651-42.107l-22.844-10.742s-26.535,36.084-56.541,37.444c0,0,51.961-28.09,51.156-39.553,0,0-21.567-8.6-28.423-8.105,0,0-19.624,25.4-37.139,24.676,0,0,32.725-22.455,30.949-26.369,0,0-31.088-3.719-47.825,2.776,0,0,24.037-11.325,48.158-7.605,0,0-10.159-13.684-24.287-17.487,0,0,17.653-5.912,31.809,18.458,0,0,24.093,3.886,26.924,6.773,0,0-10.575-26.064-24.981-37.8,0,0,22.205,5.552,31.088,40.442l23.2,10.3s-12.157-35.2-24.2-46.6c0,0,21.845,9.1,29.839,49.685l21.1,13.3s-8.161-31.088-18.791-46.715c0,0,18.431,12.824,24.676,50.767L260.667,392s-6.356-22.594-8.771-28.923-.916-7.494-.916-7.494a79.522,79.522,0,0,1,15.239,40.747S291.866,419.758,293.448,418.342Z" transform="translate(-91.85 -305.806)" fill="#d68c00"/>
    </g>
  </g>
</svg>
